<svg width="32" height="32" viewBox="0 0 32 32" fill="none" xmlns="http://www.w3.org/2000/svg">
<g clip-path="url(#clip0_1803_412)">
<path d="M27.3145 27.3137C33.5629 21.0653 33.5629 10.9347 27.3145 4.68629C21.0661 -1.5621 10.9355 -1.5621 4.68712 4.68629C-1.56127 10.9347 -1.56127 21.0653 4.68712 27.3137C10.9355 33.5621 21.0661 33.5621 27.3145 27.3137Z" fill="#F19A93"/>
<path d="M16.0856 15.7751C15.8399 15.8024 15.5988 15.8433 15.3622 15.8979C14.4205 15.9161 13.7882 15.493 13.4287 14.6741C12.9875 13.655 12.9738 12.5313 13.0966 11.3894C13.265 9.80623 13.588 8.22759 13.9064 6.65349C14.1203 5.57983 14.3477 4.50617 14.5707 3.43251C14.6025 3.28238 14.5706 3.24599 14.4205 3.23689C13.6244 3.19139 12.8328 3.13225 12.0412 3.06856C11.9001 3.05946 11.8638 3.10496 11.8365 3.24144C11.4862 5.043 11.1131 6.84002 10.7719 8.64159C10.5353 9.90177 10.3079 11.1665 10.2806 12.4267C10.2624 12.9362 10.2942 13.4367 10.3488 13.9325C10.4989 15.3019 10.9493 16.503 11.882 17.4538C11.9365 17.5084 11.9911 17.5584 12.0457 17.6085C10.4989 18.9824 9.52991 20.9295 9.47531 22.8494C9.36158 26.9575 12.6099 29.3641 15.9764 28.8682C19.5295 28.4997 22.5276 25.1605 22.5276 21.6028C22.5276 17.8723 19.6341 15.3702 16.0811 15.7751H16.0856ZM16.0037 26.084C13.8837 26.3479 12.2777 24.8102 12.2823 22.7447C12.2868 20.7749 13.911 18.9278 15.8809 18.6184C16.0674 18.6048 16.2539 18.5866 16.4405 18.5684C18.2193 18.5547 19.7342 19.8695 19.7342 21.8895C19.7342 23.9412 18.0919 25.8201 16.0037 26.084V26.084Z" fill="#DA3727"/>
</g>
<defs>
<clipPath id="clip0_1803_412">
<rect width="32" height="32" fill="white"/>
</clipPath>
</defs>
</svg>
