<svg width="25" height="24" viewBox="0 0 25 24" fill="none" xmlns="http://www.w3.org/2000/svg">
<path d="M18.5371 12L20.5371 12C21.0675 12 21.5763 12.2107 21.9513 12.5858C22.3264 12.9609 22.5371 13.4696 22.5371 14L22.5371 19C22.5371 19.5304 22.3264 20.0391 21.9513 20.4142C21.5763 20.7893 21.0675 21 20.5371 21L4.53711 21C4.00668 21 3.49797 20.7893 3.1229 20.4142C2.74782 20.0391 2.53711 19.5304 2.53711 19L2.53711 14C2.53711 13.4696 2.74782 12.9609 3.1229 12.5858C3.49797 12.2107 4.00668 12 4.53711 12L6.53711 12" stroke="#909AEF" stroke-width="2" stroke-linecap="round" stroke-linejoin="round"/>
<path d="M18.5371 16L6.53711 16" stroke="#909AEF" stroke-width="2" stroke-linecap="round" stroke-linejoin="round"/>
<path d="M6.23711 6.3C5.814 5.85761 5.56791 5.27536 5.54549 4.66363C5.52306 4.05189 5.72586 3.45319 6.11544 2.98101C6.50501 2.50883 7.0543 2.19599 7.65915 2.10181C8.26401 2.00762 8.88241 2.13863 9.39711 2.47C9.73176 2.68945 10.0096 2.98515 10.2078 3.33283C10.4059 3.6805 10.5188 4.07023 10.5371 4.47L10.5371 12" stroke="#909AEF" stroke-width="2" stroke-linecap="round" stroke-linejoin="round"/>
<path d="M17.9373 8.4C18.1736 8.16832 18.3487 7.88163 18.447 7.56562C18.5452 7.24961 18.5635 6.91417 18.5002 6.58935C18.4369 6.26454 18.294 5.9605 18.0843 5.70451C17.8746 5.44851 17.6046 5.24855 17.2986 5.12255C16.9926 4.99655 16.6601 4.94845 16.331 4.98256C16.0018 5.01667 15.6862 5.13192 15.4126 5.31799C15.1389 5.50406 14.9157 5.75512 14.763 6.04868C14.6102 6.34223 14.5327 6.66911 14.5373 7L14.5373 12" stroke="#909AEF" stroke-width="2" stroke-linecap="round" stroke-linejoin="round"/>
</svg>
