<svg width="32" height="32" viewBox="0 0 32 32" fill="none" xmlns="http://www.w3.org/2000/svg">
<g clip-path="url(#clip0_1927_15)">
<path d="M19.0633 0.947108C27.4427 2.65039 32.8547 10.824 31.1514 19.2034C29.4481 27.5828 21.2745 32.9949 12.8951 31.2916C4.51572 29.5883 -0.896336 21.4147 0.806948 13.0353C2.51023 4.65588 10.6839 -0.756177 19.0633 0.947108Z" stroke="white"/>
<path d="M10.8234 16.3064H20.1682L16.5871 19.8775L17.0616 20.352L21.217 16.2065C21.282 16.1416 21.3169 16.0567 21.3169 15.9718C21.3169 15.8869 21.282 15.797 21.217 15.732L17.0616 11.5916L16.5871 12.066L20.1682 15.6371H10.8234C10.6386 15.6371 10.4888 15.787 10.4888 15.9718C10.4888 16.1566 10.6386 16.3064 10.8234 16.3064Z" fill="white"/>
</g>
<defs>
<clipPath id="clip0_1927_15">
<rect width="32" height="32" fill="white" transform="translate(0 0.104004)"/>
</clipPath>
</defs>
</svg>
