<svg width="24" height="24" viewBox="0 0 24 24" fill="none" xmlns="http://www.w3.org/2000/svg">
<path fill-rule="evenodd" clip-rule="evenodd" d="M19.2293 12C19.2293 12.34 19.1993 12.66 19.1593 12.98L21.2693 14.63C21.4593 14.78 21.5093 15.05 21.3893 15.27L19.3893 18.73C19.2993 18.89 19.1293 18.98 18.9593 18.98C18.8993 18.98 18.8393 18.97 18.7793 18.95L16.2893 17.95C15.7693 18.34 15.2093 18.68 14.5993 18.93L14.2193 21.58C14.1893 21.82 13.9793 22 13.7293 22H9.72933C9.47933 22 9.26933 21.82 9.23933 21.58L8.85933 18.93C8.24933 18.68 7.68933 18.35 7.16933 17.95L4.67933 18.95C4.62933 18.97 4.56933 18.98 4.50933 18.98C4.32933 18.98 4.15933 18.89 4.06933 18.73L2.06933 15.27C1.94933 15.05 1.99933 14.78 2.18933 14.63L4.29933 12.98C4.25933 12.66 4.22933 12.33 4.22933 12C4.22933 11.67 4.25933 11.34 4.29933 11.02L2.18933 9.37C1.99933 9.22 1.93933 8.95 2.06933 8.73L4.06933 5.27C4.15933 5.11 4.32933 5.02 4.49933 5.02C4.55933 5.02 4.61933 5.03 4.67933 5.05L7.16933 6.05C7.68933 5.66 8.24933 5.32 8.85933 5.07L9.23933 2.42C9.26933 2.18 9.47933 2 9.72933 2H13.7293C13.9793 2 14.1893 2.18 14.2193 2.42L14.5993 5.07C15.2093 5.32 15.7693 5.65 16.2893 6.05L18.7793 5.05C18.8293 5.03 18.8893 5.02 18.9493 5.02C19.1293 5.02 19.2993 5.11 19.3893 5.27L21.3893 8.73C21.5093 8.95 21.4593 9.22 21.2693 9.37L19.1593 11.02C19.1993 11.34 19.2293 11.66 19.2293 12ZM17.2293 12C17.2293 11.79 17.2193 11.58 17.1793 11.27L17.0393 10.14L17.9293 9.44L18.9993 8.59L18.2993 7.38L17.0293 7.89L15.9693 8.32L15.0593 7.62C14.6593 7.32 14.2593 7.09 13.8293 6.91L12.7693 6.48L12.6093 5.35L12.4193 4H11.0293L10.8293 5.35L10.6693 6.48L9.60933 6.91C9.19933 7.08 8.78933 7.32 8.35933 7.64L7.45933 8.32L6.41933 7.9L5.14933 7.39L4.44933 8.6L5.52933 9.44L6.41933 10.14L6.27933 11.27C6.24933 11.57 6.22933 11.8 6.22933 12C6.22933 12.2 6.24933 12.43 6.27933 12.74L6.41933 13.87L5.52933 14.57L4.44933 15.41L5.14933 16.62L6.41933 16.11L7.47933 15.68L8.38933 16.38C8.78933 16.68 9.18933 16.91 9.61933 17.09L10.6793 17.52L10.8393 18.65L11.0293 20H12.4293L12.6293 18.65L12.7893 17.52L13.8493 17.09C14.2593 16.92 14.6693 16.68 15.0993 16.36L15.9993 15.68L17.0393 16.1L18.3093 16.61L19.0093 15.4L17.9293 14.56L17.0393 13.86L17.1793 12.73C17.2093 12.43 17.2293 12.21 17.2293 12ZM11.7293 8C9.51933 8 7.72933 9.79 7.72933 12C7.72933 14.21 9.51933 16 11.7293 16C13.9393 16 15.7293 14.21 15.7293 12C15.7293 9.79 13.9393 8 11.7293 8ZM9.72933 12C9.72933 13.1 10.6293 14 11.7293 14C12.8293 14 13.7293 13.1 13.7293 12C13.7293 10.9 12.8293 10 11.7293 10C10.6293 10 9.72933 10.9 9.72933 12Z" fill="#2134DF"/>
</svg>
