<svg width="33" height="33" viewBox="0 0 33 33" fill="none" xmlns="http://www.w3.org/2000/svg">
<rect x="32.5547" y="8.75781" width="24" height="32" rx="12" transform="rotate(90 32.5547 8.75781)" fill="#E3E6FB"/>
<path d="M20.5547 21.7578V19.7578C20.5547 18.6969 20.1333 17.6795 19.3831 16.9294C18.633 16.1792 17.6156 15.7578 16.5547 15.7578H10.5547C9.49382 15.7578 8.47641 16.1792 7.72626 16.9294C6.97611 17.6795 6.55469 18.6969 6.55469 19.7578V21.7578" stroke="#3CAEA3" stroke-width="2" stroke-linecap="round" stroke-linejoin="round"/>
<path d="M13.5547 11.7578C15.7638 11.7578 17.5547 9.96695 17.5547 7.75781C17.5547 5.54867 15.7638 3.75781 13.5547 3.75781C11.3455 3.75781 9.55469 5.54867 9.55469 7.75781C9.55469 9.96695 11.3455 11.7578 13.5547 11.7578Z" fill="#E3E6FB" stroke="#3CAEA3" stroke-width="2" stroke-linecap="round" stroke-linejoin="round"/>
<path d="M26.5547 21.7578V19.7578C26.554 18.8715 26.259 18.0106 25.7161 17.3101C25.1731 16.6097 24.4128 16.1094 23.5547 15.8878" stroke="#3CAEA3" stroke-width="2" stroke-linecap="round" stroke-linejoin="round"/>
<path d="M20.5547 3.88782C21.4151 4.10812 22.1777 4.60852 22.7223 5.31013C23.2669 6.01174 23.5625 6.87465 23.5625 7.76282C23.5625 8.65099 23.2669 9.5139 22.7223 10.2155C22.1777 10.9171 21.4151 11.4175 20.5547 11.6378" stroke="#3CAEA3" stroke-width="2" stroke-linecap="round" stroke-linejoin="round"/>
</svg>
