<svg width="33" height="33" viewBox="0 0 33 33" fill="none" xmlns="http://www.w3.org/2000/svg">
<rect x="32.5547" y="8.75781" width="24" height="32" rx="12" transform="rotate(90 32.5547 8.75781)" fill="#E3E6FB"/>
<path d="M9.88802 18.9911C12.8214 18.9911 15.2214 16.5511 15.2214 13.5911C15.2214 12.0445 14.4614 10.5778 12.9414 9.3378C11.4214 8.0978 10.2747 6.2578 9.88802 4.32446C9.50135 6.2578 8.36802 8.11113 6.83469 9.3378C5.30135 10.5645 4.55469 12.0578 4.55469 13.5911C4.55469 16.5511 6.95469 18.9911 9.88802 18.9911Z" fill="#909AEF" stroke="#1927A7" stroke-width="2" stroke-linecap="round" stroke-linejoin="round"/>
<path d="M17.3015 6.05776C18.2185 4.59259 18.8685 2.97648 19.2215 1.28442C19.8881 4.61776 21.8881 7.81776 24.5548 9.95109C27.2215 12.0844 28.5548 14.6178 28.5548 17.2844C28.5624 19.1275 28.0226 20.9313 27.0039 22.4672C25.9851 24.0031 24.5332 25.202 22.8323 25.9117C21.1314 26.6215 19.258 26.8103 17.4497 26.4541C15.6414 26.098 13.9795 25.2129 12.6748 23.9111" stroke="#1927A7" stroke-width="2" stroke-linecap="round" stroke-linejoin="round"/>
</svg>
